<svg width="1440" height="30" viewBox="0 0 1440 30" fill="none" xmlns="http://www.w3.org/2000/svg">
<circle cx="15" cy="15" r="15" fill="#983B3B"/>
<circle cx="45" cy="15" r="15" fill="#983B3B"/>
<circle cx="75" cy="15" r="15" fill="#983B3B"/>
<circle cx="105" cy="15" r="15" fill="#983B3B"/>
<circle cx="135" cy="15" r="15" fill="#983B3B"/>
<circle cx="165" cy="15" r="15" fill="#983B3B"/>
<circle cx="195" cy="15" r="15" fill="#983B3B"/>
<circle cx="225" cy="15" r="15" fill="#983B3B"/>
<circle cx="255" cy="15" r="15" fill="#983B3B"/>
<circle cx="285" cy="15" r="15" fill="#983B3B"/>
<circle cx="315" cy="15" r="15" fill="#983B3B"/>
<circle cx="345" cy="15" r="15" fill="#983B3B"/>
<circle cx="375" cy="15" r="15" fill="#983B3B"/>
<circle cx="405" cy="15" r="15" fill="#983B3B"/>
<circle cx="435" cy="15" r="15" fill="#983B3B"/>
<circle cx="465" cy="15" r="15" fill="#983B3B"/>
<circle cx="495" cy="15" r="15" fill="#983B3B"/>
<circle cx="525" cy="15" r="15" fill="#983B3B"/>
<circle cx="555" cy="15" r="15" fill="#983B3B"/>
<circle cx="585" cy="15" r="15" fill="#983B3B"/>
<circle cx="615" cy="15" r="15" fill="#983B3B"/>
<circle cx="645" cy="15" r="15" fill="#983B3B"/>
<circle cx="675" cy="15" r="15" fill="#983B3B"/>
<circle cx="705" cy="15" r="15" fill="#983B3B"/>
<circle cx="735" cy="15" r="15" fill="#983B3B"/>
<circle cx="765" cy="15" r="15" fill="#983B3B"/>
<circle cx="795" cy="15" r="15" fill="#983B3B"/>
<circle cx="825" cy="15" r="15" fill="#983B3B"/>
<circle cx="855" cy="15" r="15" fill="#983B3B"/>
<circle cx="885" cy="15" r="15" fill="#983B3B"/>
<circle cx="915" cy="15" r="15" fill="#983B3B"/>
<circle cx="945" cy="15" r="15" fill="#983B3B"/>
<circle cx="975" cy="15" r="15" fill="#983B3B"/>
<circle cx="1005" cy="15" r="15" fill="#983B3B"/>
<circle cx="1035" cy="15" r="15" fill="#983B3B"/>
<circle cx="1065" cy="15" r="15" fill="#983B3B"/>
<circle cx="1095" cy="15" r="15" fill="#983B3B"/>
<circle cx="1125" cy="15" r="15" fill="#983B3B"/>
<circle cx="1155" cy="15" r="15" fill="#983B3B"/>
<circle cx="1185" cy="15" r="15" fill="#983B3B"/>
<circle cx="1215" cy="15" r="15" fill="#983B3B"/>
<circle cx="1245" cy="15" r="15" fill="#983B3B"/>
<circle cx="1275" cy="15" r="15" fill="#983B3B"/>
<circle cx="1305" cy="15" r="15" fill="#983B3B"/>
<circle cx="1335" cy="15" r="15" fill="#983B3B"/>
<circle cx="1365" cy="15" r="15" fill="#983B3B"/>
<circle cx="1395" cy="15" r="15" fill="#983B3B"/>
<circle cx="1425" cy="15" r="15" fill="#983B3B"/>
<rect y="17" width="1440" height="13" fill="#983B3B"/>
</svg>
